<svg xmlns="http://www.w3.org/2000/svg" xmlns:xlink="http://www.w3.org/1999/xlink" xmlns:lucid="lucid" width="2144.35" height="1721.23"><g transform="translate(0 0)" lucid:page-tab-id="0_0"><path d="M540 184.3c0-4.42 3.58-8 8-8h724c4.42 0 8 3.58 8 8v122.67c0 4.42-3.58 8-8 8H548c-4.42 0-8-3.58-8-8z" stroke="#000" stroke-opacity="0" stroke-width="2" fill="#fff" fill-opacity="0"/><use xlink:href="#a" transform="matrix(1,0,0,1,544,180.29333333333335) translate(41.0137037037037 77.50666666666666)"/><use xlink:href="#b" transform="matrix(1,0,0,1,544,180.29333333333335) translate(230.34703703703704 77.50666666666666)"/><use xlink:href="#c" transform="matrix(1,0,0,1,544,180.29333333333335) translate(333.9025925925926 77.50666666666666)"/><use xlink:href="#d" transform="matrix(1,0,0,1,544,180.29333333333335) translate(493.45814814814815 77.50666666666666)"/><path d="M280 442c0-16.57 13.43-30 30-30h1700c16.57 0 30 13.43 30 30v1128c0 16.57-13.43 30-30 30H310c-16.57 0-30-13.43-30-30z" stroke="#474747" fill-opacity="0"/><path d="M388 414.4v3.54c0 6.42-7.1 13.05-15.76 13.05h-46.48c-8.66 0-15.75-6.64-15.75-13.06v-3.54z" fill="#9d5125"/><path d="M340.03 380c8.03 0 14.82 4.4 18.17 11.67 4.6-3.14 10.92-1.98 14.04 2.65 1.17 1.64 1.7 3.32 1.8 5.3 7.87.68 13.95 8.25 13.95 14.27v1.3c0 6.45-7.1 13-15.76 13h-46.5c-8.64 0-15.74-6.55-15.74-13v-1.3c0-5.02 4.2-11.87 10.06-13.56v-.57c.08-10.95 8.97-19.82 19.97-19.77z" fill="#f58535"/><path d="M329.54 403.13l-5.2 18.2h3.04l1.17-4.43h5.38l1.1 4.43h3.05l-4.8-18.2zm-.47 11.4l2.22-8.98 2.1 8.97zM351.2 417.34h-.03l-2.47-14.2h-3.1l-2.4 14.13h-.06l-2.4-14.14h-2.95l3.53 18.2h3.38l2.35-13.7h.06l2.36 13.7h3.4l3.64-18.2h-2.9l-2.4 14.2zM365.9 411.4l-1.98-.72c-1.93-.7-2.74-1.53-2.74-3.1-.17-1.26.74-2.43 2-2.6.16-.02.3-.02.45-.02 1.26-.17 2.4.72 2.58 1.96.04.25.03.44 0 .68v.38h2.93v-.4c0-1.9-.5-4.8-5.18-4.8-3.44 0-5.7 1.84-5.7 5.16 0 2.6 1.1 3.97 3.82 5l2 .68c1.6.23 2.73 1.6 2.64 3.2.04 1.45-1.08 2.64-2.5 2.68h-.28c-2 0-3-1.12-3-3.33v-.47h-2.9v.44c0 2.54 1.02 5.53 5.52 5.53 3.7 0 6.07-1.6 6.07-5.48.04-2.5-1.1-3.9-3.7-4.8z" fill="#fff"/><path d="M642.14 702c0-16.57 13.43-30 30-30H1970c16.57 0 30 13.43 30 30v828c0 16.57-13.43 30-30 30H672.14c-16.57 0-30-13.43-30-30z" stroke="#474747" fill-opacity="0"/><path d="M750.14 674.4v3.54c0 6.42-7.1 13.05-15.76 13.05H687.9c-8.65 0-15.75-6.64-15.75-13.06v-3.54z" fill="#9d5125"/><path d="M702.17 640c8.03 0 14.82 4.4 18.17 11.67 4.6-3.14 10.92-1.98 14.04 2.65 1.17 1.64 1.72 3.32 1.8 5.3 7.87.68 13.96 8.25 13.96 14.27v1.3c0 6.45-7.1 13-15.76 13H687.9c-8.66 0-15.76-6.55-15.76-13v-1.3c0-5.02 4.2-11.87 10.06-13.56v-.57c.08-10.95 8.97-19.82 19.97-19.77z" fill="#f58535"/><path d="M691.04 663.13h3.1l3.08 14.58 3.33-14.54h3.08l-4.6 18.2h-3.7zM705.5 663.13h5.78c3.5 0 5.04 2.2 5.04 5.3 0 3.1-1.9 5.4-5.33 5.4h-2.58v7.53h-2.9zm2.92 8.5h2.08c1.55 0 2.9-.83 2.9-3.14 0-1.98-.8-3.17-3.12-3.17h-1.86zM729.96 674.83v.38c0 3.32-1.33 6.52-5.62 6.52-4.6 0-6.04-2.97-6.04-9.47s1.44-9.46 6.05-9.46c5.2 0 5.54 3.8 5.54 5.7v.37h-2.92v-.3c0-1.7-.5-3.64-2.6-3.57-2.08.08-3.1 1.35-3.1 7.22 0 5.87.93 7.3 3.14 7.3 2.43 0 2.72-2.7 2.72-4.42v-.3z" fill="#fff"/><use xlink:href="#e" transform="matrix(1,0,0,1,642.1428571428575,1530) translate(570.0123456790124 12.888888888888888)"/><use xlink:href="#f" transform="matrix(1,0,0,1,642.1428571428575,1530) translate(699.0987654320988 12.888888888888888)"/><path d="M760 730c0-16.57 13.43-30 30-30h1140c16.57 0 30 13.43 30 30v300c0 16.57-13.43 30-30 30H790c-16.57 0-30-13.43-30-30z" fill-opacity="0"/><path d="M775.04 704.1l3.17-1.7 4.72-1.56 4.93-.76L790 700h15.2m15.2 0h30.4m15.2 0h30.4m15.2 0H942m15.2 0h30.4m15.2 0h30.4m15.2 0h30.4m15.2 0h30.4m15.2 0h30.4m15.2 0h30.4m15.2 0h30.4m15.2 0h30.4m15.2 0h30.4m15.2 0h30.4m15.2 0h30.4m15.2 0h30.4m15.2 0h30.4m15.2 0h30.4m15.2 0h30.4m15.2 0h30.4m15.2 0h30.4m15.2 0h30.4m15.2 0h30.4m15.2 0h30.4m15.2 0h30.4m15.2 0h15.2l5 .42 4.82 1.22 4.54 2 .6.42m10.95 10.98l1.7 3.17 1.56 4.72.76 4.93.08 2.15v14.3m0 14.27v28.57m0 14.3V830m0 14.3v28.56m0 14.28v28.57m0 14.3v28.57m0 14.3v28.56m0 14.28v14.3l-.42 5-1.22 4.82-2 4.54-.42.6m-10.98 10.95l-3.17 1.7-4.72 1.56-4.93.76-2.15.08h-15.2m-15.2 0h-30.4m-15.2 0h-30.4m-15.2 0H1778m-15.2 0h-30.4m-15.2 0h-30.4m-15.2 0h-30.4m-15.2 0h-30.4m-15.2 0H1550m-15.2 0h-30.4m-15.2 0h-30.4m-15.2 0h-30.4m-15.2 0h-30.4m-15.2 0H1322m-15.2 0h-30.4m-15.2 0h-30.4m-15.2 0h-30.4m-15.2 0h-30.4m-15.2 0H1094m-15.2 0h-30.4m-15.2 0h-30.4m-15.2 0h-30.4m-15.2 0h-30.4m-15.2 0H866m-15.2 0h-30.4m-15.2 0H790l-5-.42-4.82-1.22-4.54-2-.6-.42m-10.95-10.98l-1.7-3.17-1.56-4.72-.76-4.93-.08-2.15v-14.3m0-14.27v-28.57m0-14.3V930m0-14.3v-28.56m0-14.28V844.3m0-14.3v-28.57m0-14.3v-28.56m0-14.28V730l.42-5 1.22-4.82 2-4.54.42-.6" stroke="#f7981f" stroke-width="3" fill="none"/><use xlink:href="#g" transform="matrix(1,0,0,1,759.9999999999997,1030) translate(536.8302469135803 13.777777777777775)"/><use xlink:href="#h" transform="matrix(1,0,0,1,759.9999999999997,1030) translate(614.0895061728395 13.777777777777775)"/><use xlink:href="#i" transform="matrix(1,0,0,1,759.9999999999997,1030) translate(653.7993827160494 13.777777777777775)"/><path d="M800 782c0-16.57 13.43-30 30-30h460c16.57 0 30 13.43 30 30v188c0 16.57-13.43 30-30 30H830c-16.57 0-30-13.43-30-30z" stroke="#474747" fill-opacity="0"/><path d="M861.97 740.24v-5.9c0-7.25-5.88-13.13-13.12-13.13-7.24 0-13.12 5.9-13.12 13.14v5.9h6.64v-5.9c0-3.58 2.9-6.5 6.48-6.5 3.57 0 6.48 2.92 6.48 6.5v5.9h6.64z" fill="#876a22"/><path d="M861.98 740.26h5.42v20.83H830v-20.84h5.72v-7.1c0-7.28 5.87-13.16 13.13-13.16 7.26 0 13.13 5.88 13.13 13.15v7.1zm-6.66 0v-7.1c0-3.6-2.88-6.5-6.47-6.5-3.6 0-6.47 2.9-6.47 6.5v7.1h12.94z" fill="#daa835"/><path d="M830 761.1h37.4v.9H830z" fill="#876a22"/><use xlink:href="#j" transform="matrix(1,0,0,1,800,969.9999999999998) translate(206.93827160493828 13.777777777777775)"/><path d="M1400 782c0-16.57 13.43-30 30-30h460c16.57 0 30 13.43 30 30v188c0 16.57-13.43 30-30 30h-460c-16.57 0-30-13.43-30-30z" stroke="#474747" fill-opacity="0"/><path d="M1461.97 740.24v-5.9c0-7.25-5.88-13.13-13.12-13.13-7.24 0-13.12 5.9-13.12 13.14v5.9h6.64v-5.9c0-3.58 2.9-6.5 6.48-6.5 3.57 0 6.48 2.92 6.48 6.5v5.9h6.64z" fill="#876a22"/><path d="M1461.98 740.26h5.42v20.83H1430v-20.84h5.72v-7.1c0-7.28 5.87-13.16 13.13-13.16 7.26 0 13.13 5.88 13.13 13.15v7.1zm-6.66 0v-7.1c0-3.6-2.88-6.5-6.47-6.5-3.6 0-6.47 2.9-6.47 6.5v7.1h12.94z" fill="#daa835"/><path d="M1430 761.1h37.4v.9H1430z" fill="#876a22"/><use xlink:href="#k" transform="matrix(1,0,0,1,1400,969.9999999999998) translate(203.91358024691357 13.777777777777775)"/><path d="M760 1170c0-16.57 13.43-30 30-30h1140c16.57 0 30 13.43 30 30v300c0 16.57-13.43 30-30 30H790c-16.57 0-30-13.43-30-30z" fill-opacity="0"/><path d="M775.04 1144.1l3.17-1.7 4.72-1.56 4.93-.76 2.15-.08h15.2m15.2 0h30.4m15.2 0h30.4m15.2 0H942m15.2 0h30.4m15.2 0h30.4m15.2 0h30.4m15.2 0h30.4m15.2 0h30.4m15.2 0h30.4m15.2 0h30.4m15.2 0h30.4m15.2 0h30.4m15.2 0h30.4m15.2 0h30.4m15.2 0h30.4m15.2 0h30.4m15.2 0h30.4m15.2 0h30.4m15.2 0h30.4m15.2 0h30.4m15.2 0h30.4m15.2 0h30.4m15.2 0h30.4m15.2 0h30.4m15.2 0h15.2l5 .42 4.82 1.22 4.54 2 .6.42m10.95 10.98l1.7 3.17 1.56 4.72.76 4.93.08 2.15v14.3m0 14.27v28.57m0 14.3V1270m0 14.3v28.56m0 14.28v28.57m0 14.3v28.57m0 14.3v28.56m0 14.28v14.3l-.42 5-1.22 4.82-2 4.54-.42.6m-10.98 10.95l-3.17 1.7-4.72 1.56-4.93.76-2.15.08h-15.2m-15.2 0h-30.4m-15.2 0h-30.4m-15.2 0H1778m-15.2 0h-30.4m-15.2 0h-30.4m-15.2 0h-30.4m-15.2 0h-30.4m-15.2 0H1550m-15.2 0h-30.4m-15.2 0h-30.4m-15.2 0h-30.4m-15.2 0h-30.4m-15.2 0H1322m-15.2 0h-30.4m-15.2 0h-30.4m-15.2 0h-30.4m-15.2 0h-30.4m-15.2 0H1094m-15.2 0h-30.4m-15.2 0h-30.4m-15.2 0h-30.4m-15.2 0h-30.4m-15.2 0H866m-15.2 0h-30.4m-15.2 0H790l-5-.42-4.82-1.22-4.54-2-.6-.42m-10.95-10.98l-1.7-3.17-1.56-4.72-.76-4.93-.08-2.15v-14.3m0-14.27v-28.57m0-14.3V1370m0-14.3v-28.56m0-14.28v-28.57m0-14.3v-28.57m0-14.3v-28.56m0-14.28V1170l.42-5 1.22-4.82 2-4.54.42-.6" stroke="#f7981f" stroke-width="3" fill="none"/><use xlink:href="#l" transform="matrix(1,0,0,1,759.9999999999997,1470) translate(536.8302469135803 13.777777777777775)"/><use xlink:href="#m" transform="matrix(1,0,0,1,759.9999999999997,1470) translate(614.0895061728395 13.777777777777775)"/><use xlink:href="#n" transform="matrix(1,0,0,1,759.9999999999997,1470) translate(653.7993827160494 13.777777777777775)"/><path d="M800 1222c0-16.57 13.43-30 30-30h460c16.57 0 30 13.43 30 30v188c0 16.57-13.43 30-30 30H830c-16.57 0-30-13.43-30-30z" stroke="#474747" fill-opacity="0"/><path d="M861.97 1180.24v-5.9c0-7.25-5.88-13.13-13.12-13.13-7.24 0-13.12 5.9-13.12 13.14v5.9h6.64v-5.9c0-3.58 2.9-6.5 6.48-6.5 3.57 0 6.48 2.92 6.48 6.5v5.9h6.64z" fill="#876a22"/><path d="M861.98 1180.26h5.42v20.83H830v-20.84h5.72v-7.1c0-7.28 5.87-13.16 13.13-13.16 7.26 0 13.13 5.88 13.13 13.15v7.1zm-6.66 0v-7.1c0-3.6-2.88-6.5-6.47-6.5-3.6 0-6.47 2.9-6.47 6.5v7.1h12.94z" fill="#daa835"/><path d="M830 1201.1h37.4v.9H830z" fill="#876a22"/><use xlink:href="#o" transform="matrix(1,0,0,1,800,1410) translate(206.93827160493828 13.777777777777775)"/><path d="M1400 1222c0-16.57 13.43-30 30-30h460c16.57 0 30 13.43 30 30v188c0 16.57-13.43 30-30 30h-460c-16.57 0-30-13.43-30-30z" stroke="#474747" fill-opacity="0"/><path d="M1461.97 1180.24v-5.9c0-7.25-5.88-13.13-13.12-13.13-7.24 0-13.12 5.9-13.12 13.14v5.9h6.64v-5.9c0-3.58 2.9-6.5 6.48-6.5 3.57 0 6.48 2.92 6.48 6.5v5.9h6.64z" fill="#876a22"/><path d="M1461.98 1180.26h5.42v20.83H1430v-20.84h5.72v-7.1c0-7.28 5.87-13.16 13.13-13.16 7.26 0 13.13 5.88 13.13 13.15v7.1zm-6.66 0v-7.1c0-3.6-2.88-6.5-6.47-6.5-3.6 0-6.47 2.9-6.47 6.5v7.1h12.94z" fill="#daa835"/><path d="M1430 1201.1h37.4v.9H1430z" fill="#876a22"/><use xlink:href="#p" transform="matrix(1,0,0,1,1400,1410) translate(203.91358024691357 13.777777777777775)"/><path d="M322.14 1101.57c0 21.2-18.4 38.42-41.07 38.42S240 1122.77 240 1101.56c0-21.2 18.4-38.42 41.07-38.42s41.07 17.2 41.07 38.42z" fill="#9d5025"/><path d="M240 1098.42h82.14v3.15H240v-3.15z" fill="#9d5025"/><path d="M322.14 1098.42c0 21.2-18.4 38.42-41.07 38.42s-41.07-17.2-41.07-38.42c0-21.2 18.4-38.42 41.07-38.42s41.07 17.2 41.07 38.42z" fill="#f58536"/><path d="M250.1 1102.24v-1c.3-4.66 3.1-8.54 7.6-10.57.45-8.58 8.24-15.2 17.46-14.75 5.75.26 10.58 3 13.5 7.65 4.7-1.85 10.07.18 12.05 4.55.32.62.5 1.14.63 1.77 6.2 1.14 10.64 6.68 10.64 11.34v.92c0 5.7-6.3 10.7-13.48 10.7h-34.97c-7.12.02-13.43-4.97-13.43-10.62z" fill="#fff"/><path d="M289.48 1087.66l-2.62 1.7-1.34-2.72c-2.03-4.23-6.2-6.82-11.18-6.85h-.06c-6.8 0-12.36 5.18-12.36 11.58v2.16l-1.92.52c-3.27 1.23-5.4 3.9-5.67 7.2v.93c0 3.1 4.06 6.72 9.25 6.72h35c5.24 0 9.25-3.6 9.25-6.73v-.94c0-3.15-3.74-7.25-8.08-7.57l-2.35-.2-.16-2.17c0-.94-.32-1.7-.86-2.45-1.55-2.13-4.65-2.65-6.9-1.2z" fill="#f58536"/><use xlink:href="#q" transform="matrix(1,0,0,1,240,1140) translate(25.96604938271605 13.11111111111111)"/><path d="M1177.5 1106.25c0 84.25-62.16 152.63-138.75 152.63-76.6 0-138.75-68.38-138.75-152.63 0-84.26 62.16-152.64 138.75-152.64 76.6 0 138.75 68.4 138.75 152.65z" fill="#9d5025"/><path d="M1177.5 1093.72c0 84.26-62.16 152.64-138.75 152.64-76.6 0-138.75-68.38-138.75-152.64 0-84.25 62.16-152.63 138.75-152.63 76.6 0 138.75 68.37 138.75 152.62z" fill="#f58536"/><path d="M1079.2 970.42v55.43h-80.97v-55.43h80.98zM1141.84 1130.83v45.13h-41v-45.13h41zM1089.98 1130.83v45.13h-41.02v-45.13h41.02zM1026.82 1130.83v45.13H985.8v-45.13h41.02zM974.92 1130.83v45.13h-41v-45.13h41z" fill="#fff"/><path d="M950.73 1091.77h7.38v44.27h-7.37v-44.27z" fill="#fff"/><path d="M950.73 1091.77H1010v8.1h-59.27v-8.1z" fill="#fff"/><path d="M1002.62 1091.77h7.38v44.27h-7.38v-44.27zM1065.78 1091.77h7.38v44.27h-7.38v-44.27z" fill="#fff"/><path d="M1065.78 1091.77h59.27v8.1h-59.27v-8.1z" fill="#fff"/><path d="M1117.67 1091.77h7.38v44.27h-7.38v-44.27zM976.73 1060.14h7.38v35.66h-7.37v-35.66zM1035.03 1017.68h7.38v43.13h-7.37v-43.12z" fill="#fff"/><path d="M976.73 1056.74h122.5v8.1h-122.5v-8.1z" fill="#fff"/><path d="M1091.86 1060.14h7.38v35.66h-7.38v-35.66z" fill="#fff"/><use xlink:href="#r" transform="matrix(1,0,0,1,900,1258.913043478261) translate(67.94999999999999 14.4)"/><use xlink:href="#s" transform="matrix(1,0,0,1,900,1258.913043478261) translate(174.14999999999998 14.4)"/><path d="M1622.28 815.36h75.44c19.78 0 19.78 0 19.78 19.72v75.2c0 19.7 0 19.7-19.78 19.7h-75.44c-19.78 0-19.78 0-19.78-19.7v-75.2c0-19.72 0-19.72 19.78-19.72z" fill="#9d5025"/><path d="M1622.28 810h75.44c19.78 0 19.78 0 19.78 19.72v75.2c0 19.7 0 19.7-19.78 19.7h-75.44c-19.78 0-19.78 0-19.78-19.7v-75.2c0-19.72 0-19.72 19.78-19.72z" fill="#f58536"/><path d="M1617.64 1255.36h75.44c19.78 0 19.78 0 19.78 19.72v75.2c0 19.7 0 19.7-19.78 19.7h-75.44c-19.78 0-19.78 0-19.78-19.7v-75.2c0-19.72 0-19.72 19.78-19.72z" fill="#9d5025"/><path d="M1617.64 1250h75.44c19.78 0 19.78 0 19.78 19.72v75.2c0 19.7 0 19.7-19.78 19.7h-75.44c-19.78 0-19.78 0-19.78-19.7v-75.2c0-19.72 0-19.72 19.78-19.72z" fill="#f58536"/><use xlink:href="#t" transform="matrix(1,0,0,1,1597.857142857143,1370) translate(28.074999999999996 14.4)"/><path d="M1616.2 831.88h87.6v39.87h-87.6v-39.87z" fill="#9d5025"/><path d="M1616.2 828.25h87.6v39.87h-87.6v-39.87z" fill="#f58536"/><path d="M1635.13 830.63h4.12v35.12h-4.12v-35.12zM1642.73 830.63h4.12v35.12h-4.12v-35.12zM1650.33 830.63h4.13v35.12h-4.13v-35.12zM1619.92 830.63h4.13v35.12h-4.13v-35.12zM1627.52 830.63h4.13v35.12h-4.13v-35.12zM1657.93 830.63h4.13v35.12h-4.13v-35.12zM1665.54 830.63h4.12v35.12h-4.12v-35.12zM1673.14 830.63h4.12v35.12h-4.12v-35.12zM1680.73 830.63h4.13v35.12h-4.13v-35.12zM1688.33 830.63h4.13v35.12h-4.13v-35.12zM1695.94 830.63h4.12v35.12h-4.12v-35.12z" fill="#fbbf93"/><path d="M1621 831.58h3.05v34.17H1621v-34.17zM1628.6 831.58h3.06v34.17h-3.06v-34.17zM1636.2 831.58h3.06v34.17h-3.06v-34.17zM1643.8 831.58h3.05v34.17h-3.05v-34.17zM1651.4 831.58h3.06v34.17h-3.06v-34.17zM1659 831.58h3.06v34.17H1659v-34.17zM1666.6 831.58h3.06v34.17h-3.06v-34.17zM1674.2 831.58h3.06v34.17h-3.05v-34.17zM1681.8 831.58h3.07v34.17h-3.06v-34.17zM1689.4 831.58h3.07v34.17h-3.06v-34.17zM1697 831.58h3.07v34.17H1697v-34.17z" fill="#fff"/><use xlink:href="#u" transform="matrix(1,0,0,1,1616.2068965517242,871.7499999999998) translate(10.799999999999997 14.4)"/><use xlink:href="#v" transform="matrix(1,0,0,1,1616.2068965517242,871.7499999999998) translate(48.25 14.4)"/><use xlink:href="#w" transform="matrix(1,0,0,1,1616.2068965517242,871.7499999999998) translate(23.099999999999998 36)"/><path d="M1616.2 1271.88h87.6v39.87h-87.6v-39.87z" fill="#9d5025"/><path d="M1616.2 1268.25h87.6v39.87h-87.6v-39.87z" fill="#f58536"/><path d="M1635.13 1270.63h4.12v35.12h-4.12v-35.12zM1642.73 1270.63h4.12v35.12h-4.12v-35.12zM1650.33 1270.63h4.13v35.12h-4.13v-35.12zM1619.92 1270.63h4.13v35.12h-4.13v-35.12zM1627.52 1270.63h4.13v35.12h-4.13v-35.12zM1657.93 1270.63h4.13v35.12h-4.13v-35.12zM1665.54 1270.63h4.12v35.12h-4.12v-35.12zM1673.14 1270.63h4.12v35.12h-4.12v-35.12zM1680.73 1270.63h4.13v35.12h-4.13v-35.12zM1688.33 1270.63h4.13v35.12h-4.13v-35.12zM1695.94 1270.63h4.12v35.12h-4.12v-35.12z" fill="#fbbf93"/><path d="M1621 1271.58h3.05v34.17H1621v-34.17zM1628.6 1271.58h3.06v34.17h-3.06v-34.17zM1636.2 1271.58h3.06v34.17h-3.06v-34.17zM1643.8 1271.58h3.05v34.17h-3.05v-34.17zM1651.4 1271.58h3.06v34.17h-3.06v-34.17zM1659 1271.58h3.06v34.17H1659v-34.17zM1666.6 1271.58h3.06v34.17h-3.06v-34.17zM1674.2 1271.58h3.06v34.17h-3.05v-34.17zM1681.8 1271.58h3.07v34.17h-3.06v-34.17zM1689.4 1271.58h3.07v34.17h-3.06v-34.17zM1697 1271.58h3.07v34.17H1697v-34.17z" fill="#fff"/><use xlink:href="#u" transform="matrix(1,0,0,1,1616.2068965517242,1311.75) translate(10.799999999999997 14.4)"/><use xlink:href="#v" transform="matrix(1,0,0,1,1616.2068965517242,1311.75) translate(48.25 14.4)"/><use xlink:href="#x" transform="matrix(1,0,0,1,1616.2068965517242,1311.75) translate(26.55 36)"/><path d="M1177.92 1110H1348c6.63 0 12-5.37 12-12V892c0-6.63 5.37-12 12-12h214.12" stroke="#666" fill="none"/><path d="M1177.93 1110.5h-.52l.03-1h.5zM1600.88 880l-14.26 4.64v-9.28z" fill="#666"/><path d="M1602.5 880l-16.38 5.32v-10.64zm-15.38 3.95l12.14-3.95-12.14-3.95z" fill="#666"/><path d="M1538.26 567.77l-51.4 14.22v-84.16l51.4 13.9v56.03z" fill="#759c3e"/><path d="M1486.87 582l-13.87-6.9v-70.27l13.87-7V582zM1496.07 528.13l26.42-3.2v30l-26.43-3.37v-23.43z" fill="#4b612c"/><path d="M1572 522.45l-23.93 2.47-52-8.36L1522.5 480l49.5 42.45z" fill="#3c4929"/><path d="M1496.07 493.17L1522.5 480v30l-26.43 6.58v-23.4z" fill="#4b612c"/><path d="M1572 557.57l-23.93-2.5-52 8.2 26.42 36.43 49.5-42.13z" fill="#b7ca9d"/><path d="M1496.07 586.66L1522.5 600v-30l-26.43-6.73v23.4z" fill="#4b612c"/><path d="M1572 522.43L1522.5 510v-30l49.5 24.87v17.56zM1572 548.62l-49.5 6.3v-30.15l49.5 6.3v17.55zM1572 575.12L1522.5 600v-30l49.5-12.44v17.56z" fill="#759c3e"/><use xlink:href="#y" transform="matrix(1,0,0,1,1473,600) translate(30.275 14.4)"/><use xlink:href="#z" transform="matrix(1,0,0,1,1473,600) translate(4.074999999999996 36)"/><path d="M1927.88 489.12v101.76h-95.76V489.12h95.76M1937 480h-114v120h114V480z" fill="#9d5025"/><path d="M1927.88 489.15v96.03h-95.76v-96.03h95.76M1937 480h-114v114.32h114V480z" fill="#f58536"/><path d="M1837.46 497.92h40.43v22.4h-40.44v-22.4zM1882.1 497.92h40.43v22.4h-40.43v-22.4z" fill="#9d5025"/><path d="M1837.46 494.53h40.43v22.4h-40.44v-22.4z" fill="#f58536"/><path d="M1839.93 496.34h2.16v18.8h-2.17v-18.8zM1845.5 496.34h2.16v18.8h-2.17v-18.8zM1851.03 496.34h2.17v18.8h-2.17v-18.8zM1856.6 496.34h2.17v18.8h-2.16v-18.8zM1862.15 496.34h2.16v18.8h-2.15v-18.8zM1867.7 496.34h2.15v18.8h-2.16v-18.8zM1873.24 496.34h2.17v18.8h-2.16v-18.8z" fill="#fff"/><path d="M1882.1 494.53h40.43v22.4h-40.43v-22.4z" fill="#f58536"/><path d="M1884.6 496.34h2.17v18.8h-2.16v-18.8zM1890.15 496.34h2.16v18.8h-2.15v-18.8zM1895.7 496.34h2.15v18.8h-2.16v-18.8zM1901.25 496.34h2.17v18.8h-2.17v-18.8zM1906.8 496.34h2.16v18.8h-2.17v-18.8zM1912.34 496.34h2.17v18.8h-2.16v-18.8zM1917.9 496.34h2.16v18.8h-2.17v-18.8z" fill="#fff"/><path d="M1837.46 527.65h40.43v22.4h-40.44v-22.4zM1882.1 527.65h40.43v22.4h-40.43v-22.4z" fill="#9d5025"/><path d="M1837.46 524.27h40.43v22.4h-40.44v-22.4z" fill="#f58536"/><path d="M1839.93 526.07h2.16v18.8h-2.17v-18.8zM1845.5 526.07h2.16v18.8h-2.17v-18.8zM1851.03 526.07h2.17v18.8h-2.17v-18.8zM1856.6 526.07h2.17v18.8h-2.16v-18.8zM1862.15 526.07h2.16v18.8h-2.15v-18.8zM1867.7 526.07h2.15v18.8h-2.16v-18.8zM1873.24 526.07h2.17v18.8h-2.16v-18.8z" fill="#fff"/><path d="M1882.1 524.27h40.43v22.4h-40.43v-22.4z" fill="#f58536"/><path d="M1884.6 526.07h2.17v18.8h-2.16v-18.8zM1890.15 526.07h2.16v18.8h-2.15v-18.8zM1895.7 526.07h2.15v18.8h-2.16v-18.8zM1901.25 526.07h2.17v18.8h-2.17v-18.8zM1906.8 526.07h2.16v18.8h-2.17v-18.8zM1912.34 526.07h2.17v18.8h-2.16v-18.8zM1917.9 526.07h2.16v18.8h-2.17v-18.8z" fill="#fff"/><path d="M1837.46 557.38h40.43v22.4h-40.44v-22.4zM1882.1 557.38h40.43v22.4h-40.43v-22.4z" fill="#9d5025"/><path d="M1837.46 554h40.43v22.4h-40.44V554z" fill="#f58536"/><path d="M1839.93 555.8h2.16v18.78h-2.17v-18.8zM1845.5 555.8h2.16v18.78h-2.17v-18.8zM1851.03 555.8h2.17v18.78h-2.17v-18.8zM1856.6 555.8h2.17v18.78h-2.16v-18.8zM1862.15 555.8h2.16v18.78h-2.15v-18.8zM1867.7 555.8h2.15v18.78h-2.16v-18.8zM1873.24 555.8h2.17v18.78h-2.16v-18.8z" fill="#fff"/><path d="M1882.1 554h40.43v22.4h-40.43V554z" fill="#f58536"/><path d="M1884.6 555.8h2.17v18.78h-2.16v-18.8zM1890.15 555.8h2.16v18.78h-2.15v-18.8zM1895.7 555.8h2.15v18.78h-2.16v-18.8zM1901.25 555.8h2.17v18.78h-2.17v-18.8zM1906.8 555.8h2.16v18.78h-2.17v-18.8zM1912.34 555.8h2.17v18.78h-2.16v-18.8zM1917.9 555.8h2.16v18.78h-2.17v-18.8z" fill="#fff"/><use xlink:href="#A" transform="matrix(1,0,0,1,1823,600) translate(9.849999999999994 14.4)"/><use xlink:href="#B" transform="matrix(1,0,0,1,1823,600) translate(49.3 14.4)"/><path d="M1522.47 181.67l25.4 19.72v5.32c0 13.93-11.38 25.25-25.4 25.25-14 0-25.4-11.32-25.4-25.25v-5.33zM1536.94 238.98c16.1 0 29.06 9.7 29.06 25.44v31.86h-16.7v-22.35h-2.88v22.35h-47.32v-22.35h-2.87v22.35H1479v-31.86c0-15.75 12.96-25.44 29.06-25.44z" fill="#7d7c7c"/><path d="M1522.45 176.3c13.9.1 25.1 11.42 25 25.25-.1 13.83-11.5 24.96-25.4 24.86-13.8-.1-24.95-11.22-25-25 0-13.88 11.4-25.1 25.35-25.1h.05zM1536.94 233.65c16.1 0 29.06 9.7 29.06 25.44v31.85h-16.7v-22.4h-2.88v22.4h-47.32v-22.4h-2.87v22.4H1479V259.1c0-15.76 12.96-25.45 29.06-25.45z" fill="#d2d3d3"/><use xlink:href="#C" transform="matrix(1,0,0,1,1479,296.29333333333335) translate(14.099999999999998 14.4)"/><path d="M1522.5 296.78v166.84" stroke="#666" fill="none"/><path d="M1523 296.8h-1v-.52h1zM1522.5 478.4l-4.64-14.28h9.28z" fill="#666"/><path d="M1522.5 480l-5.32-16.38h10.64zm-3.95-15.38l3.95 12.15 3.95-12.15z" fill="#666"/><path d="M1522.5 296.78v79.36c0 6.63 5.37 12 12 12H1868c6.63 0 12 5.37 12 12v63.48" stroke="#666" fill="none"/><path d="M1523 296.8h-1v-.52h1zM1880 478.38l-4.64-14.26h9.28z" fill="#666"/><path d="M1880 480l-5.32-16.38h10.64zm-3.95-15.38l3.95 12.14 3.95-12.14z" fill="#666"/><path d="M1177.92 1110H1348c6.63 0 12 5.37 12 12v186c0 6.63 5.37 12 12 12h209.47" stroke="#666" fill="none"/><path d="M1177.93 1110.5h-.52l.03-1h.5zM1596.24 1320l-14.27 4.64v-9.28z" fill="#666"/><path d="M1597.86 1320l-16.4 5.32v-10.64zm-15.4 3.95l12.16-3.95-12.15-3.95z" fill="#666"/><path d="M321.63 1110h562.03" stroke="#666" fill="none"/><path d="M321.65 1110.5H321l.08-.2.15-.8h.42zM898.43 1110l-14.27 4.64v-9.28z" fill="#666"/><path d="M900.04 1110l-16.38 5.32v-10.64zm-15.38 3.95l12.15-3.95-12.14-3.95z" fill="#666"/><path d="M1522.5 600.48v158.05c0 6.63-5.37 12-12 12h-459.75c-6.63 0-12 5.38-12 12V924.7" stroke="#666" fill="none"/><path d="M1523 600.5h-1v-.76l.5.25.5-.27zm0-1.24l-.5.44v-2.72h.5zM1038.75 939.47l-4.64-14.27h9.3z" fill="#666"/><path d="M1038.75 941.1l-5.32-16.4h10.64zm-3.95-15.4l3.95 12.15 3.95-12.15z" fill="#666"/><path d="M1880 600.5V693c0 6.63-5.37 12-12 12h-196c-6.63 0-12 5.37-12 12v76.62" stroke="#666" fill="none"/><path d="M1880.5 600.5h-1v-.5h1zM1660 808.38l-4.64-14.26h9.28z" fill="#666"/><path d="M1660 810l-5.32-16.38h10.64zm-3.95-15.38l3.95 12.14 3.95-12.14z" fill="#666"/><path d="M1164 485.42l57.98 8.62v5.1c0 7.53-25.98 13.63-58 13.63-32 0-57.98-6.1-57.98-13.64v-5.53z" fill="#8c3123"/><path d="M1164.02 522.13c24.2 0 44.93-3.54 53.58-8.5l2.88-4.78 1.15-4.4v5.45l-19 81c0 5.08-17.3 9.1-38.6 9.1-21.33 0-38.6-4.02-38.6-9.1l-19.02-81v-5.35l4.38 9.27c8.76 4.87 29.27 8.3 53.24 8.3z" fill="#8c3123"/><path d="M1164 480c32 0 58 6.12 58 13.62 0 7.5-26 13.57-58 13.57s-58-6.02-58-13.58c0-7.56 26-13.62 58-13.62z" fill="#e05243"/><path d="M1164 516.6c29.84 0 54.4-5.2 57.62-12.06l-19.02 81c0 5.05-17.3 9.1-38.6 9.1-21.33 0-38.6-4.05-38.6-9.1l-19.03-81c3.23 6.85 27.78 12.07 57.62 12.07z" fill="#e05243"/><path d="M1150.35 524.38h25.1v24.96h-25.1v-24.96zM1142.75 558.17c6.84 0 12.4 5.5 12.4 12.3 0 6.8-5.56 12.3-12.4 12.3-6.83 0-12.38-5.5-12.38-12.3 0-6.8 5.55-12.3 12.38-12.3zM1194.8 582.2H1170l12.4-22.94 12.4 22.94z" fill="#fff"/><use xlink:href="#D" transform="matrix(1,0,0,1,1106,600) translate(10.399999999999999 14.4)"/><use xlink:href="#E" transform="matrix(1,0,0,1,1106,600) translate(44.75 14.4)"/><path d="M855 542.36c0 31.8-25.76 57.63-57.5 57.63S740 574.16 740 542.35c0-31.8 25.76-57.63 57.5-57.63s57.5 25.82 57.5 57.63z" fill="#9d5025"/><path d="M855 537.63c0 31.8-25.76 57.63-57.5 57.63S740 569.44 740 537.63c0-31.8 25.76-57.63 57.5-57.63s57.5 25.82 57.5 57.63z" fill="#f58536"/><path d="M817.7 547.92h4.34v3.83h-4.35zm-10.76-51.5h5.66v5.5h-3.77V500h-1.9zm1.9 31.37v-7.5h3.76v7.4zm3.76 5.48v7.32h-3.77v-7.4zm-3.77-18.38v-7.5h3.77v7.4zm-15.1-18.47h7.55v3.74h-7.56zm-11.2 0h5.68v3.74h-1.88v1.92h-3.78zm0 11.15h3.8v7.32h-3.8zm0 12.9h3.8v7.4h-3.8zm0 12.9h3.8v7.4h-3.8zm-9.57 14.7h4.43v3.76h-4.44zm-3.42 3.4v.36h-.36l-2.1 2.1-5.9-5.85h8.3v2.95l.2.18zm8.43 13.16l-6.17-6.1 2.6-2.7 6.18 6.1zm2.76-16.46h1.88v-1.92h3.8v5.58h-5.67zm8.13 27.1l-6.25-6.1 2.7-2.7 6.17 6.1zm8.64 8.27l-4-3.75 2.62-2.7 1.38 1.3 1.3-1.3 2.7 2.7zm8.64-8.45l-2.6-2.7 6.16-6.1 2.6 2.6zm8.13-23.44h-5.66v-5.57h3.8v1.9h1.87zm2.76 12.8l-2.6-2.7 6.16-6.1 2.6 2.7zm10.9-10.7l-2.1-2.1h-.3v-.35l-.22-.16.23-.26v-2.96h8.28z" fill="#fff"/><use xlink:href="#F" transform="matrix(1,0,0,1,740,600) translate(22.049999999999997 14.4)"/><use xlink:href="#G" transform="matrix(1,0,0,1,740,600) translate(16.025 36)"/><path d="M1522.5 296.78v79.36c0 6.63-5.37 12-12 12H1176c-6.63 0-12 5.37-12 12v63.48" stroke="#666" fill="none"/><path d="M1523 296.8h-1v-.52h1zM1164 478.38l-4.64-14.26h9.28z" fill="#666"/><path d="M1164 480l-5.32-16.38h10.64zm-3.95-15.38l3.95 12.14 3.95-12.14z" fill="#666"/><path d="M1115.3 550H870.84" stroke="#666" fill="none"/><path d="M1115.93 550.5h-.63v-1h.4zM870.33 554.64L856.06 550l14.27-4.64z" fill="#666"/><path d="M870.83 555.32l-16.4-5.32 16.4-5.32zM857.68 550l12.15 3.95v-7.9z" fill="#666"/><path d="M181.18 529.72c11.06 0 18.8 6.98 18.8 16.92v21.58h-9.72v-14.64h-2.67v14.64H172.6c-1-10.94-9.84-18.38-22.24-18.38h-8.62v-5.97c9.5-.85 17.12-4.5 17.94-14.2h.87zM119.34 529.7h.93c.88 9.68 8.44 13.34 17.93 14.2v5.93h-8.44c-12.4 0-21.3 7.48-22.23 18.4H92.86v-14.66H90.2l-.02 14.65H80V546.6c0-10 7.74-16.94 18.86-16.94z" fill="#7d7c7c"/><path d="M150.3 558.93c11.06 0 18.8 6.98 18.8 16.93v21.63h-9.78v-14.7h-2.62v14.65h-33.07V582.8h-2.56v14.65h-10.2v-21.6c0-9.94 7.75-16.92 18.8-16.92zM109.06 487.56l16.32 11.6v5c.1 9.14-7.18 16.6-16.28 16.7h-.04c-8.94 0-16.32-7.47-16.32-17.42v-4.4zM170.86 487.56l16.32 11.6v5c.1 9.14-7.18 16.6-16.28 16.7h-.04c-8.94 0-16.32-7.47-16.32-17.42v-4.4zM140 510.34l14.4 10.2v4.5c.14 8.07-6.28 14.72-14.35 14.87H140c-8.17-.2-14.63-6.94-14.42-15.1 0-.12 0-.2.02-.33v-4.02z" fill="#7d7c7c"/><path d="M170.88 482.5c9.18-.17 16.76 7.16 16.93 16.35.17 9.2-7.14 16.78-16.32 16.94-9.18.16-16.76-7.17-16.92-16.35v-.34c-.07-9.08 7.2-16.53 16.32-16.6zM139.96 505.2c8.14-.2 14.9 6.25 15.1 14.4.18 8.15-6.25 14.9-14.4 15.12-8.13.18-14.9-6.26-15.1-14.4v-.36c-.08-8.07 6.35-14.65 14.4-14.77zM181.18 524.58c11.06 0 18.8 6.98 18.8 16.94v21.64h-9.72V548.5h-2.67v14.66H172.6c-1-10.96-9.84-18.36-22.24-18.36h-8.62v-1.9c9.73-.96 17.12-8.52 17.94-18.24h.87zM119.34 524.6h.93c.82 9.75 8.2 17.3 17.93 18.27v1.85h-8.44c-12.4 0-21.3 7.48-22.23 18.4H92.86V548.5H90.2l-.02 14.65H80v-21.63c0-10 7.74-16.93 18.86-16.93z" fill="#d2d3d3"/><path d="M150.3 553.87c11.06 0 18.8 6.98 18.8 16.93v21.63h-9.78v-14.65h-2.62v14.65h-33.07v-14.65h-2.56v14.65h-10.2V570.8c0-9.95 7.75-16.93 18.8-16.93zM109.07 482.5c9.18-.17 16.76 7.16 16.93 16.35.16 9.2-7.15 16.78-16.33 16.94-9.18.16-16.76-7.17-16.93-16.35v-.34c-.06-9.08 7.22-16.5 16.33-16.6z" fill="#d2d3d3"/><g><use xlink:href="#H" transform="matrix(1,0,0,1,80,597.5) translate(41.55 14.4)"/></g><path d="M216.37 550h523.68" stroke="#666" fill="none"/><path d="M215.87 554.64L201.6 550l14.27-4.64z" fill="#666"/><path d="M216.37 555.32L200 550l16.37-5.32zM203.22 550l12.15 3.95v-7.9zM740.62 550.5h-.58v-1h.44z" fill="#666"/><path d="M140 597.95V1098c0 6.63 5.37 12 12 12h72.62" stroke="#666" fill="none"/><path d="M140.5 597.96h-1v-.5h1zM239.38 1110l-14.26 4.64v-9.28z" fill="#666"/><path d="M241 1110l-16.38 5.32v-10.64zm-15.38 3.95l12.14-3.95-12.14-3.95z" fill="#666"/><path d="M1357.86 840h240v60h-240z" stroke="#000" stroke-opacity="0" stroke-width="2" fill="#fff" fill-opacity="0"/><g><use xlink:href="#I" transform="matrix(1,0,0,1,1362.857142857143,845) translate(49.675 28.6)"/></g><path d="M1357.86 1278.9h240v60h-240z" stroke="#000" stroke-opacity="0" stroke-width="2" fill="#fff" fill-opacity="0"/><g><use xlink:href="#J" transform="matrix(1,0,0,1,1362.857142857143,1283.913043478261) translate(45.224999999999994 28.6)"/></g><defs><path d="M169-182c-1-43-94-46-97-3 18 66 151 10 154 114 3 95-165 93-204 36-6-8-10-19-12-30l50-8c3 46 112 56 116 5-17-69-150-10-154-114-4-87 153-88 188-35 5 8 8 18 10 28" id="K"/><path d="M133-34C117-15 103 5 69 4 32 3 11-16 11-54c-1-60 55-63 116-61 1-26-3-47-28-47-18 1-26 9-28 27l-52-2c7-38 36-58 82-57s74 22 75 68l1 82c-1 14 12 18 25 15v27c-30 8-71 5-69-32zm-48 3c29 0 43-24 42-57-32 0-66-3-65 30 0 17 8 27 23 27" id="L"/><path d="M128 0H69L1-190h53L99-40l48-150h52" id="M"/><path d="M135-194c87-1 58 113 63 194h-50c-7-57 23-157-34-157-59 0-34 97-39 157H25l-1-190h47c2 12-1 28 3 38 12-26 28-41 61-42" id="N"/><path d="M115-3C79 11 28 4 28-45v-112H4v-33h27l15-45h31v45h36v33H77v99c-1 23 16 31 38 25v30" id="O"/><g id="a"><use transform="matrix(0.14814814814814817,0,0,0.14814814814814817,0,0)" xlink:href="#K"/><use transform="matrix(0.14814814814814817,0,0,0.14814814814814817,35.55555555555556,0)" xlink:href="#L"/><use transform="matrix(0.14814814814814817,0,0,0.14814814814814817,65.18518518518519,0)" xlink:href="#M"/><use transform="matrix(0.14814814814814817,0,0,0.14814814814814817,94.81481481481482,0)" xlink:href="#L"/><use transform="matrix(0.14814814814814817,0,0,0.14814814814814817,124.44444444444446,0)" xlink:href="#N"/><use transform="matrix(0.14814814814814817,0,0,0.14814814814814817,156.8888888888889,0)" xlink:href="#O"/></g><path d="M24 0v-248h52V0H24" id="P"/><path d="M24-248c120-7 223 5 221 122C244-46 201 0 124 0H24v-248zM76-40c74 7 117-18 117-86 0-67-45-88-117-82v168" id="Q"/><path d="M24 0v-248h195v40H76v63h132v40H76v65h150V0H24" id="R"/><g id="b"><use transform="matrix(0.14814814814814817,0,0,0.14814814814814817,0,0)" xlink:href="#P"/><use transform="matrix(0.14814814814814817,0,0,0.14814814814814817,14.814814814814817,0)" xlink:href="#Q"/><use transform="matrix(0.14814814814814817,0,0,0.14814814814814817,53.18518518518519,0)" xlink:href="#R"/></g><path d="M67-125c0 53 21 87 73 88 37 1 54-22 65-47l45 17C233-25 199 4 140 4 58 4 20-42 15-125 8-235 124-281 211-232c18 10 29 29 36 50l-46 12c-8-25-30-41-62-41-52 0-71 34-72 86" id="S"/><path d="M4 7l51-268h42L46 7H4" id="T"/><g id="c"><use transform="matrix(0.14814814814814817,0,0,0.14814814814814817,0,0)" xlink:href="#S"/><use transform="matrix(0.14814814814814817,0,0,0.14814814814814817,38.370370370370374,0)" xlink:href="#P"/><use transform="matrix(0.14814814814814817,0,0,0.14814814814814817,53.18518518518519,0)" xlink:href="#T"/><use transform="matrix(0.14814814814814817,0,0,0.14814814814814817,68,0)" xlink:href="#S"/><use transform="matrix(0.14814814814814817,0,0,0.14814814814814817,106.37037037037038,0)" xlink:href="#Q"/></g><path d="M24-248c93 1 206-16 204 79-1 75-69 88-152 82V0H24v-248zm52 121c47 0 100 7 100-41 0-47-54-39-100-39v80" id="U"/><path d="M25-224v-37h50v37H25zM25 0v-190h50V0H25" id="V"/><path d="M135-194c53 0 70 44 70 98 0 56-19 98-73 100-31 1-45-17-59-34 3 33 2 69 2 105H25l-1-265h48c2 10 0 23 3 31 11-24 29-35 60-35zM114-30c33 0 39-31 40-66 0-38-9-64-40-64-56 0-55 130 0 130" id="W"/><path d="M185-48c-13 30-37 53-82 52C43 2 14-33 14-96s30-98 90-98c62 0 83 45 84 108H66c0 31 8 55 39 56 18 0 30-7 34-22zm-45-69c5-46-57-63-70-21-2 6-4 13-4 21h74" id="X"/><path d="M25 0v-261h50V0H25" id="Y"/><g id="d"><use transform="matrix(0.14814814814814817,0,0,0.14814814814814817,0,0)" xlink:href="#U"/><use transform="matrix(0.14814814814814817,0,0,0.14814814814814817,35.55555555555556,0)" xlink:href="#V"/><use transform="matrix(0.14814814814814817,0,0,0.14814814814814817,50.370370370370374,0)" xlink:href="#W"/><use transform="matrix(0.14814814814814817,0,0,0.14814814814814817,82.81481481481482,0)" xlink:href="#X"/><use transform="matrix(0.14814814814814817,0,0,0.14814814814814817,112.44444444444446,0)" xlink:href="#Y"/><use transform="matrix(0.14814814814814817,0,0,0.14814814814814817,127.25925925925925,0)" xlink:href="#V"/><use transform="matrix(0.14814814814814817,0,0,0.14814814814814817,142.07407407407408,0)" xlink:href="#N"/><use transform="matrix(0.14814814814814817,0,0,0.14814814814814817,174.51851851851853,0)" xlink:href="#X"/></g><path d="M137-138c1-29-70-34-71-4 15 46 118 7 119 86 1 83-164 76-172 9l43-7c4 19 20 25 44 25 33 8 57-30 24-41C81-84 22-81 20-136c-2-80 154-74 161-7" id="Z"/><path d="M14-72v-43h91v43H14" id="aa"/><path d="M88-194c31-1 46 15 58 34l-1-101h50l1 261h-48c-2-10 0-23-3-31C134-8 116 4 84 4 32 4 16-41 15-95c0-56 19-97 73-99zm17 164c33 0 40-30 41-66 1-37-9-64-41-64s-38 30-39 65c0 43 13 65 39 65" id="ab"/><path d="M190-63c-7 42-38 67-86 67-59 0-84-38-90-98-12-110 154-137 174-36l-49 2c-2-19-15-32-35-32-30 0-35 28-38 64-6 74 65 87 74 30" id="ac"/><g id="e"><use transform="matrix(0.04938271604938272,0,0,0.04938271604938272,0,0)" xlink:href="#Z"/><use transform="matrix(0.04938271604938272,0,0,0.04938271604938272,9.876543209876544,0)" xlink:href="#L"/><use transform="matrix(0.04938271604938272,0,0,0.04938271604938272,19.75308641975309,0)" xlink:href="#M"/><use transform="matrix(0.04938271604938272,0,0,0.04938271604938272,29.629629629629633,0)" xlink:href="#L"/><use transform="matrix(0.04938271604938272,0,0,0.04938271604938272,39.50617283950618,0)" xlink:href="#N"/><use transform="matrix(0.04938271604938272,0,0,0.04938271604938272,50.320987654320994,0)" xlink:href="#O"/><use transform="matrix(0.04938271604938272,0,0,0.04938271604938272,56.19753086419754,0)" xlink:href="#aa"/><use transform="matrix(0.04938271604938272,0,0,0.04938271604938272,62.074074074074076,0)" xlink:href="#V"/><use transform="matrix(0.04938271604938272,0,0,0.04938271604938272,67.01234567901236,0)" xlink:href="#ab"/><use transform="matrix(0.04938271604938272,0,0,0.04938271604938272,77.82716049382717,0)" xlink:href="#X"/><use transform="matrix(0.04938271604938272,0,0,0.04938271604938272,87.70370370370371,0)" xlink:href="#aa"/><use transform="matrix(0.04938271604938272,0,0,0.04938271604938272,93.58024691358025,0)" xlink:href="#M"/><use transform="matrix(0.04938271604938272,0,0,0.04938271604938272,103.4567901234568,0)" xlink:href="#W"/><use transform="matrix(0.04938271604938272,0,0,0.04938271604938272,114.27160493827161,0)" xlink:href="#ac"/></g><path d="M23 0v-37h61v-169l-59 37v-38l62-41h46v211h57V0H23" id="ad"/><path d="M101-251c68 0 84 54 84 127C185-50 166 4 99 4S15-52 14-124c-1-75 17-127 87-127zm-1 216c37-5 36-46 36-89s4-89-36-89c-39 0-36 45-36 89 0 43-3 85 36 89" id="ae"/><path d="M24 0v-54h51V0H24" id="af"/><path d="M115-159c48 0 72 30 72 78 0 54-30 85-83 85-64 0-91-50-91-122 0-98 58-163 141-120 15 8 21 24 27 44l-47 6c-5-31-48-31-61-4-7 14-11 33-11 60 9-17 28-27 53-27zM102-35c24 0 36-20 36-45s-11-43-37-43c-23 0-36 14-36 38 0 27 11 50 37 50" id="ag"/><g id="f"><use transform="matrix(0.04938271604938272,0,0,0.04938271604938272,0,0)" xlink:href="#ad"/><use transform="matrix(0.04938271604938272,0,0,0.04938271604938272,9.876543209876544,0)" xlink:href="#ae"/><use transform="matrix(0.04938271604938272,0,0,0.04938271604938272,19.75308641975309,0)" xlink:href="#af"/><use transform="matrix(0.04938271604938272,0,0,0.04938271604938272,24.69135802469136,0)" xlink:href="#ae"/><use transform="matrix(0.04938271604938272,0,0,0.04938271604938272,34.567901234567906,0)" xlink:href="#af"/><use transform="matrix(0.04938271604938272,0,0,0.04938271604938272,39.50617283950618,0)" xlink:href="#ae"/><use transform="matrix(0.04938271604938272,0,0,0.04938271604938272,49.38271604938272,0)" xlink:href="#af"/><use transform="matrix(0.04938271604938272,0,0,0.04938271604938272,54.320987654320994,0)" xlink:href="#ae"/><use transform="matrix(0.04938271604938272,0,0,0.04938271604938272,64.19753086419755,0)" xlink:href="#T"/><use transform="matrix(0.04938271604938272,0,0,0.04938271604938272,69.13580246913583,0)" xlink:href="#ad"/><use transform="matrix(0.04938271604938272,0,0,0.04938271604938272,79.01234567901237,0)" xlink:href="#ag"/></g><path d="M205 0l-28-72H64L36 0H1l101-248h38L239 0h-34zm-38-99l-47-123c-12 45-31 82-46 123h93" id="ah"/><path d="M108 0H70L1-190h34L89-25l56-165h34" id="ai"/><path d="M141-36C126-15 110 5 73 4 37 3 15-17 15-53c-1-64 63-63 125-63 3-35-9-54-41-54-24 1-41 7-42 31l-33-3c5-37 33-52 76-52 45 0 72 20 72 64v82c-1 20 7 32 28 27v20c-31 9-61-2-59-35zM48-53c0 20 12 33 32 33 41-3 63-29 60-74-43 2-92-5-92 41" id="aj"/><path d="M24-231v-30h32v30H24zM24 0v-190h32V0H24" id="ak"/><path d="M24 0v-261h32V0H24" id="al"/><path d="M115-194c53 0 69 39 70 98 0 66-23 100-70 100C84 3 66-7 56-30L54 0H23l1-261h32v101c10-23 28-34 59-34zm-8 174c40 0 45-34 45-75 0-40-5-75-45-74-42 0-51 32-51 76 0 43 10 73 51 73" id="am"/><path d="M59-47c-2 24 18 29 38 22v24C64 9 27 4 27-40v-127H5v-23h24l9-43h21v43h35v23H59v120" id="an"/><path d="M179-190L93 31C79 59 56 82 12 73V49c39 6 53-20 64-50L1-190h34L92-34l54-156h33" id="ao"/><g id="g"><use transform="matrix(0.04320987654320988,0,0,0.04320987654320988,0,0)" xlink:href="#ah"/><use transform="matrix(0.04320987654320988,0,0,0.04320987654320988,10.067901234567902,0)" xlink:href="#ai"/><use transform="matrix(0.04320987654320988,0,0,0.04320987654320988,17.84567901234568,0)" xlink:href="#aj"/><use transform="matrix(0.04320987654320988,0,0,0.04320987654320988,26.48765432098766,0)" xlink:href="#ak"/><use transform="matrix(0.04320987654320988,0,0,0.04320987654320988,29.90123456790124,0)" xlink:href="#al"/><use transform="matrix(0.04320987654320988,0,0,0.04320987654320988,33.314814814814824,0)" xlink:href="#aj"/><use transform="matrix(0.04320987654320988,0,0,0.04320987654320988,41.9567901234568,0)" xlink:href="#am"/><use transform="matrix(0.04320987654320988,0,0,0.04320987654320988,50.59876543209877,0)" xlink:href="#ak"/><use transform="matrix(0.04320987654320988,0,0,0.04320987654320988,54.01234567901235,0)" xlink:href="#al"/><use transform="matrix(0.04320987654320988,0,0,0.04320987654320988,57.425925925925945,0)" xlink:href="#ak"/><use transform="matrix(0.04320987654320988,0,0,0.04320987654320988,60.83950617283952,0)" xlink:href="#an"/><use transform="matrix(0.04320987654320988,0,0,0.04320987654320988,65.16049382716051,0)" xlink:href="#ao"/></g><path d="M209 0H11v-25l151-195H24v-28h176v25L50-27h159V0" id="ap"/><path d="M100-194c62-1 85 37 85 99 1 63-27 99-86 99S16-35 15-95c0-66 28-99 85-99zM99-20c44 1 53-31 53-75 0-43-8-75-51-75s-53 32-53 75 10 74 51 75" id="aq"/><path d="M117-194c89-4 53 116 60 194h-32v-121c0-31-8-49-39-48C34-167 62-67 57 0H25l-1-190h30c1 10-1 24 2 32 11-22 29-35 61-36" id="ar"/><path d="M100-194c63 0 86 42 84 106H49c0 40 14 67 53 68 26 1 43-12 49-29l28 8c-11 28-37 45-77 45C44 4 14-33 15-96c1-61 26-98 85-98zm52 81c6-60-76-77-97-28-3 7-6 17-6 28h103" id="as"/><g id="h"><use transform="matrix(0.04320987654320988,0,0,0.04320987654320988,0,0)" xlink:href="#ap"/><use transform="matrix(0.04320987654320988,0,0,0.04320987654320988,9.462962962962964,0)" xlink:href="#aq"/><use transform="matrix(0.04320987654320988,0,0,0.04320987654320988,18.10493827160494,0)" xlink:href="#ar"/><use transform="matrix(0.04320987654320988,0,0,0.04320987654320988,26.746913580246915,0)" xlink:href="#as"/></g><use transform="matrix(0.04320987654320988,0,0,0.04320987654320988,0,0)" xlink:href="#ah" id="i"/><path d="M115-194c55 1 70 41 70 98S169 2 115 4C84 4 66-9 55-30l1 105H24l-1-265h31l2 30c10-21 28-34 59-34zm-8 174c40 0 45-34 45-75s-6-73-45-74c-42 0-51 32-51 76 0 43 10 73 51 73" id="at"/><path d="M84 4C-5 8 30-112 23-190h32v120c0 31 7 50 39 49 72-2 45-101 50-169h31l1 190h-30c-1-10 1-25-2-33-11 22-28 36-60 37" id="au"/><path d="M96-169c-40 0-48 33-48 73s9 75 48 75c24 0 41-14 43-38l32 2c-6 37-31 61-74 61-59 0-76-41-82-99-10-93 101-131 147-64 4 7 5 14 7 22l-32 3c-4-21-16-35-41-35" id="av"/><path d="M16-82v-28h88v28H16" id="aw"/><path d="M135-143c-3-34-86-38-87 0 15 53 115 12 119 90S17 21 10-45l28-5c4 36 97 45 98 0-10-56-113-15-118-90-4-57 82-63 122-42 12 7 21 19 24 35" id="ax"/><path d="M27 0v-27h64v-190l-56 39v-29l58-41h29v221h61V0H27" id="ay"/><g id="j"><use transform="matrix(0.04320987654320988,0,0,0.04320987654320988,0,0)" xlink:href="#at"/><use transform="matrix(0.04320987654320988,0,0,0.04320987654320988,8.641975308641976,0)" xlink:href="#au"/><use transform="matrix(0.04320987654320988,0,0,0.04320987654320988,17.283950617283953,0)" xlink:href="#am"/><use transform="matrix(0.04320987654320988,0,0,0.04320987654320988,25.925925925925927,0)" xlink:href="#al"/><use transform="matrix(0.04320987654320988,0,0,0.04320987654320988,29.339506172839513,0)" xlink:href="#ak"/><use transform="matrix(0.04320987654320988,0,0,0.04320987654320988,32.753086419753096,0)" xlink:href="#av"/><use transform="matrix(0.04320987654320988,0,0,0.04320987654320988,40.530864197530875,0)" xlink:href="#aw"/><use transform="matrix(0.04320987654320988,0,0,0.04320987654320988,45.67283950617284,0)" xlink:href="#ax"/><use transform="matrix(0.04320987654320988,0,0,0.04320987654320988,53.45061728395062,0)" xlink:href="#au"/><use transform="matrix(0.04320987654320988,0,0,0.04320987654320988,62.0925925925926,0)" xlink:href="#am"/><use transform="matrix(0.04320987654320988,0,0,0.04320987654320988,70.73456790123458,0)" xlink:href="#ar"/><use transform="matrix(0.04320987654320988,0,0,0.04320987654320988,79.37654320987656,0)" xlink:href="#as"/><use transform="matrix(0.04320987654320988,0,0,0.04320987654320988,88.01851851851853,0)" xlink:href="#an"/><use transform="matrix(0.04320987654320988,0,0,0.04320987654320988,92.33950617283952,0)" xlink:href="#aw"/><use transform="matrix(0.04320987654320988,0,0,0.04320987654320988,97.4814814814815,0)" xlink:href="#ay"/></g><path d="M114-163C36-179 61-72 57 0H25l-1-190h30c1 12-1 29 2 39 6-27 23-49 58-41v29" id="az"/><g id="k"><use transform="matrix(0.04320987654320988,0,0,0.04320987654320988,0,0)" xlink:href="#at"/><use transform="matrix(0.04320987654320988,0,0,0.04320987654320988,8.641975308641976,0)" xlink:href="#az"/><use transform="matrix(0.04320987654320988,0,0,0.04320987654320988,13.783950617283953,0)" xlink:href="#ak"/><use transform="matrix(0.04320987654320988,0,0,0.04320987654320988,17.19753086419753,0)" xlink:href="#ai"/><use transform="matrix(0.04320987654320988,0,0,0.04320987654320988,24.97530864197531,0)" xlink:href="#aj"/><use transform="matrix(0.04320987654320988,0,0,0.04320987654320988,33.617283950617285,0)" xlink:href="#an"/><use transform="matrix(0.04320987654320988,0,0,0.04320987654320988,37.93827160493827,0)" xlink:href="#as"/><use transform="matrix(0.04320987654320988,0,0,0.04320987654320988,46.58024691358024,0)" xlink:href="#aw"/><use transform="matrix(0.04320987654320988,0,0,0.04320987654320988,51.722222222222214,0)" xlink:href="#ax"/><use transform="matrix(0.04320987654320988,0,0,0.04320987654320988,59.49999999999999,0)" xlink:href="#au"/><use transform="matrix(0.04320987654320988,0,0,0.04320987654320988,68.14197530864197,0)" xlink:href="#am"/><use transform="matrix(0.04320987654320988,0,0,0.04320987654320988,76.78395061728395,0)" xlink:href="#ar"/><use transform="matrix(0.04320987654320988,0,0,0.04320987654320988,85.42592592592592,0)" xlink:href="#as"/><use transform="matrix(0.04320987654320988,0,0,0.04320987654320988,94.0679012345679,0)" xlink:href="#an"/><use transform="matrix(0.04320987654320988,0,0,0.04320987654320988,98.38888888888889,0)" xlink:href="#aw"/><use transform="matrix(0.04320987654320988,0,0,0.04320987654320988,103.53086419753086,0)" xlink:href="#ay"/></g><g id="l"><use transform="matrix(0.04320987654320988,0,0,0.04320987654320988,0,0)" xlink:href="#ah"/><use transform="matrix(0.04320987654320988,0,0,0.04320987654320988,10.067901234567902,0)" xlink:href="#ai"/><use transform="matrix(0.04320987654320988,0,0,0.04320987654320988,17.84567901234568,0)" xlink:href="#aj"/><use transform="matrix(0.04320987654320988,0,0,0.04320987654320988,26.48765432098766,0)" xlink:href="#ak"/><use transform="matrix(0.04320987654320988,0,0,0.04320987654320988,29.90123456790124,0)" xlink:href="#al"/><use transform="matrix(0.04320987654320988,0,0,0.04320987654320988,33.314814814814824,0)" xlink:href="#aj"/><use transform="matrix(0.04320987654320988,0,0,0.04320987654320988,41.9567901234568,0)" xlink:href="#am"/><use transform="matrix(0.04320987654320988,0,0,0.04320987654320988,50.59876543209877,0)" xlink:href="#ak"/><use transform="matrix(0.04320987654320988,0,0,0.04320987654320988,54.01234567901235,0)" xlink:href="#al"/><use transform="matrix(0.04320987654320988,0,0,0.04320987654320988,57.425925925925945,0)" xlink:href="#ak"/><use transform="matrix(0.04320987654320988,0,0,0.04320987654320988,60.83950617283952,0)" xlink:href="#an"/><use transform="matrix(0.04320987654320988,0,0,0.04320987654320988,65.16049382716051,0)" xlink:href="#ao"/></g><g id="m"><use transform="matrix(0.04320987654320988,0,0,0.04320987654320988,0,0)" xlink:href="#ap"/><use transform="matrix(0.04320987654320988,0,0,0.04320987654320988,9.462962962962964,0)" xlink:href="#aq"/><use transform="matrix(0.04320987654320988,0,0,0.04320987654320988,18.10493827160494,0)" xlink:href="#ar"/><use transform="matrix(0.04320987654320988,0,0,0.04320987654320988,26.746913580246915,0)" xlink:href="#as"/></g><path d="M160-131c35 5 61 23 61 61C221 17 115-2 30 0v-248c76 3 177-17 177 60 0 33-19 50-47 57zm-97-11c50-1 110 9 110-42 0-47-63-36-110-37v79zm0 115c55-2 124 14 124-45 0-56-70-42-124-44v89" id="aA"/><use transform="matrix(0.04320987654320988,0,0,0.04320987654320988,0,0)" xlink:href="#aA" id="n"/><path d="M101-251c82-7 93 87 43 132L82-64C71-53 59-42 53-27h129V0H18c2-99 128-94 128-182 0-28-16-43-45-43s-46 15-49 41l-32-3c6-41 34-60 81-64" id="aB"/><g id="o"><use transform="matrix(0.04320987654320988,0,0,0.04320987654320988,0,0)" xlink:href="#at"/><use transform="matrix(0.04320987654320988,0,0,0.04320987654320988,8.641975308641976,0)" xlink:href="#au"/><use transform="matrix(0.04320987654320988,0,0,0.04320987654320988,17.283950617283953,0)" xlink:href="#am"/><use transform="matrix(0.04320987654320988,0,0,0.04320987654320988,25.925925925925927,0)" xlink:href="#al"/><use transform="matrix(0.04320987654320988,0,0,0.04320987654320988,29.339506172839513,0)" xlink:href="#ak"/><use transform="matrix(0.04320987654320988,0,0,0.04320987654320988,32.753086419753096,0)" xlink:href="#av"/><use transform="matrix(0.04320987654320988,0,0,0.04320987654320988,40.530864197530875,0)" xlink:href="#aw"/><use transform="matrix(0.04320987654320988,0,0,0.04320987654320988,45.67283950617284,0)" xlink:href="#ax"/><use transform="matrix(0.04320987654320988,0,0,0.04320987654320988,53.45061728395062,0)" xlink:href="#au"/><use transform="matrix(0.04320987654320988,0,0,0.04320987654320988,62.0925925925926,0)" xlink:href="#am"/><use transform="matrix(0.04320987654320988,0,0,0.04320987654320988,70.73456790123458,0)" xlink:href="#ar"/><use transform="matrix(0.04320987654320988,0,0,0.04320987654320988,79.37654320987656,0)" xlink:href="#as"/><use transform="matrix(0.04320987654320988,0,0,0.04320987654320988,88.01851851851853,0)" xlink:href="#an"/><use transform="matrix(0.04320987654320988,0,0,0.04320987654320988,92.33950617283952,0)" xlink:href="#aw"/><use transform="matrix(0.04320987654320988,0,0,0.04320987654320988,97.4814814814815,0)" xlink:href="#aB"/></g><g id="p"><use transform="matrix(0.04320987654320988,0,0,0.04320987654320988,0,0)" xlink:href="#at"/><use transform="matrix(0.04320987654320988,0,0,0.04320987654320988,8.641975308641976,0)" xlink:href="#az"/><use transform="matrix(0.04320987654320988,0,0,0.04320987654320988,13.783950617283953,0)" xlink:href="#ak"/><use transform="matrix(0.04320987654320988,0,0,0.04320987654320988,17.19753086419753,0)" xlink:href="#ai"/><use transform="matrix(0.04320987654320988,0,0,0.04320987654320988,24.97530864197531,0)" xlink:href="#aj"/><use transform="matrix(0.04320987654320988,0,0,0.04320987654320988,33.617283950617285,0)" xlink:href="#an"/><use transform="matrix(0.04320987654320988,0,0,0.04320987654320988,37.93827160493827,0)" xlink:href="#as"/><use transform="matrix(0.04320987654320988,0,0,0.04320987654320988,46.58024691358024,0)" xlink:href="#aw"/><use transform="matrix(0.04320987654320988,0,0,0.04320987654320988,51.722222222222214,0)" xlink:href="#ax"/><use transform="matrix(0.04320987654320988,0,0,0.04320987654320988,59.49999999999999,0)" xlink:href="#au"/><use transform="matrix(0.04320987654320988,0,0,0.04320987654320988,68.14197530864197,0)" xlink:href="#am"/><use transform="matrix(0.04320987654320988,0,0,0.04320987654320988,76.78395061728395,0)" xlink:href="#ar"/><use transform="matrix(0.04320987654320988,0,0,0.04320987654320988,85.42592592592592,0)" xlink:href="#as"/><use transform="matrix(0.04320987654320988,0,0,0.04320987654320988,94.0679012345679,0)" xlink:href="#an"/><use transform="matrix(0.04320987654320988,0,0,0.04320987654320988,98.38888888888889,0)" xlink:href="#aw"/><use transform="matrix(0.04320987654320988,0,0,0.04320987654320988,103.53086419753086,0)" xlink:href="#aB"/></g><path d="M33 0v-248h34V0H33" id="aC"/><path d="M143 4C61 4 22-44 18-125c-5-107 100-154 193-111 17 8 29 25 37 43l-32 9c-13-25-37-40-76-40-61 0-88 39-88 99 0 61 29 100 91 101 35 0 62-11 79-27v-45h-74v-28h105v86C228-13 192 4 143 4" id="aD"/><path d="M266 0h-40l-56-210L115 0H75L2-248h35L96-30l15-64 43-154h32l59 218 59-218h35" id="aE"/><g id="q"><use transform="matrix(0.04320987654320988,0,0,0.04320987654320988,0,0)" xlink:href="#aC"/><use transform="matrix(0.04320987654320988,0,0,0.04320987654320988,4.320987654320988,0)" xlink:href="#aD"/><use transform="matrix(0.04320987654320988,0,0,0.04320987654320988,16.419753086419753,0)" xlink:href="#aE"/></g><path d="M41-130c7 48 86 23 86 84 0 56-69 57-112 41v-40c20 0 9 29 31 31 35 19 77-26 41-50-27-18-72-13-72-59 0-50 58-52 100-41v36c-19 1-8-25-28-25-21-7-50-1-46 23" id="aF"/><path d="M32-163c41-10 102-14 102 39v112c8 3 24-2 21 12h-45l-4-17C83 13 3 13 13-46c-2-50 45-50 92-51 4-36-5-70-42-56-6 2-12 4-16 6-4 7 0 23-15 20v-36zM42-47c0 41 41 33 63 22v-59c-34 1-63-1-63 37" id="aG"/><path d="M164-154L98 4H85L17-153c-7-3-20 0-17-12h77v8l-26 4L99-38l46-115-26-4v-8h61v8" id="aH"/><path d="M125-118c4-37-41-34-68-26v132l23 4v8H8C5-13 21-9 28-12v-141c-7-3-23 1-20-12h47l2 13c31-23 98-29 98 31v109c7 3 23-1 20 12h-72v-8l22-4v-106" id="aI"/><path d="M54-38c-1 25 24 26 44 20v12C71 10 25 9 25-35v-115H4c-2-14 14-10 21-15l18-38h11v38h38v15H54v112" id="aJ"/><path d="M13-71v-27h94v27H13" id="aK"/><path d="M47-200c-23 0-25-39 0-38 13 0 18 7 20 19-1 11-8 19-20 19zM65-12l28 4v8H8v-8l28-4v-141l-24-4v-8h53v153" id="aL"/><path d="M13-81c0-71 46-101 114-85l-1-72-28-4v-8h57v238c8 3 24-2 21 12h-47l-2-12C80 23 13-1 13-81zm77-74c-37 1-44 33-45 74 0 38 9 66 45 66 14 0 27-3 36-7v-130c-10-1-24-3-36-3" id="aM"/><path d="M84-170c49 0 66 33 63 87H46c-8 60 38 80 95 63v10C128-2 108 4 88 4 34 4 14-29 14-84c-1-54 22-86 70-86zm33 73c12-57-57-82-69-24-1 7-2 15-2 24h71" id="aN"/><path d="M166-85c3 67-44 102-111 85l1 64 29 4v9H6v-9l21-4v-217c-7-3-22 1-19-12h46l1 9c11-8 26-14 45-14 47 2 64 36 66 85zM56-13c53 14 83-14 78-72 7-53-33-79-78-60v132" id="aO"/><g id="r"><use transform="matrix(0.05,0,0,0.05,0,0)" xlink:href="#aF"/><use transform="matrix(0.05,0,0,0.05,7,0)" xlink:href="#aG"/><use transform="matrix(0.05,0,0,0.05,14.949999999999998,0)" xlink:href="#aH"/><use transform="matrix(0.05,0,0,0.05,23.95,0)" xlink:href="#aG"/><use transform="matrix(0.05,0,0,0.05,31.899999999999995,0)" xlink:href="#aI"/><use transform="matrix(0.05,0,0,0.05,40.9,0)" xlink:href="#aJ"/><use transform="matrix(0.05,0,0,0.05,45.9,0)" xlink:href="#aK"/><use transform="matrix(0.05,0,0,0.05,51.85,0)" xlink:href="#aL"/><use transform="matrix(0.05,0,0,0.05,56.85,0)" xlink:href="#aM"/><use transform="matrix(0.05,0,0,0.05,65.85,0)" xlink:href="#aN"/><use transform="matrix(0.05,0,0,0.05,73.8,0)" xlink:href="#aK"/><use transform="matrix(0.05,0,0,0.05,79.75,0)" xlink:href="#aG"/><use transform="matrix(0.05,0,0,0.05,87.7,0)" xlink:href="#aO"/><use transform="matrix(0.05,0,0,0.05,96.7,0)" xlink:href="#aL"/></g><path d="M81-9v9H4v-9l26-5 81-224h33l83 224 30 5v9h-99v-9l31-5-23-68H73L49-14zm38-203L78-98h82" id="aP"/><path d="M111-226l-36 4v207c33-1 73 2 101-4l11-49h11l-3 68H10v-9l31-5v-208l-31-4v-10h101v10" id="aQ"/><path d="M75-131c50 2 93 3 93-48 0-46-48-41-93-41v89zm0 115c55 4 111 6 111-51 0-53-58-48-111-48v99zm148-52C223 24 102-3 10 0v-9l31-5v-208l-31-4v-10c77 6 193-24 194 56 0 33-20 48-48 54 36 5 67 20 67 58" id="aR"/><g id="s"><use transform="matrix(0.05,0,0,0.05,0,0)" xlink:href="#aP"/><use transform="matrix(0.05,0,0,0.05,12.950000000000001,0)" xlink:href="#aQ"/><use transform="matrix(0.05,0,0,0.05,23.900000000000002,0)" xlink:href="#aR"/></g><path d="M45-84c0 64 52 80 104 63 1 25-30 25-55 25-56 0-80-32-80-88 0-76 62-98 131-80v46h-10c-5-15-4-31-23-35-47-10-67 21-67 69" id="aS"/><g id="t"><use transform="matrix(0.05,0,0,0.05,0,0)" xlink:href="#aL"/><use transform="matrix(0.05,0,0,0.05,5,0)" xlink:href="#aI"/><use transform="matrix(0.05,0,0,0.05,14,0)" xlink:href="#aF"/><use transform="matrix(0.05,0,0,0.05,21,0)" xlink:href="#aJ"/><use transform="matrix(0.05,0,0,0.05,26,0)" xlink:href="#aG"/><use transform="matrix(0.05,0,0,0.05,33.95,0)" xlink:href="#aI"/><use transform="matrix(0.05,0,0,0.05,42.95,0)" xlink:href="#aS"/><use transform="matrix(0.05,0,0,0.05,50.900000000000006,0)" xlink:href="#aN"/></g><path d="M10-9l31-5v-208l-31-4v-10h177v57h-11l-6-38c-28-4-63-3-95-3v92h63l6-28h11v73h-11l-6-29H75v96l105-3 10-43h12l-3 62H10v-9" id="aT"/><path d="M52-115c0 93 80 130 150 87l7-35h11l-1 55c-23 7-52 12-83 12C60 4 19-37 15-115c-5-113 97-141 201-114l1 51h-12l-5-30c-15-9-39-16-62-16-66 0-86 41-86 109" id="aU"/><path d="M178-68c0 79-95 82-154 59v-54h12c1 35 22 52 60 52 50 0 69-58 33-82-39-24-105-21-105-85 0-67 86-66 142-53v49h-12l-6-29c-31-27-121-7-89 42 28 43 119 24 119 101" id="aV"/><g id="u"><use transform="matrix(0.05,0,0,0.05,0,0)" xlink:href="#aT"/><use transform="matrix(0.05,0,0,0.05,10.950000000000001,0)" xlink:href="#aU"/><use transform="matrix(0.05,0,0,0.05,22.950000000000003,0)" xlink:href="#aV"/></g><path d="M60-80l68-73c-7-3-20 0-17-12h58c3 13-13 9-20 12l-47 48 60 93c7 3 21-1 18 12h-68c-3-12 9-9 15-12L82-83 60-60v48c7 3 21-1 18 12H10v-8l21-4v-226l-24-4v-8h53v170" id="aW"/><g id="v"><use transform="matrix(0.05,0,0,0.05,0,0)" xlink:href="#aJ"/><use transform="matrix(0.05,0,0,0.05,5,0)" xlink:href="#aG"/><use transform="matrix(0.05,0,0,0.05,12.949999999999998,0)" xlink:href="#aF"/><use transform="matrix(0.05,0,0,0.05,19.95,0)" xlink:href="#aW"/></g><path d="M108-235c-52 28-62 95-58 178 3 56 21 97 58 119v15C7 49-17-153 67-223c12-10 25-19 41-27v15" id="aX"/><path d="M240-154L185 4h-14l-41-109L90 4H77L20-153c-7-3-23 1-20-12h79v8l-27 4L91-41l40-108h14l40 109 38-113-28-4v-8h63v8" id="aY"/><path d="M12-250C113-222 137-19 52 49 40 59 28 69 12 77V62C56 37 70-16 70-87c0-70-13-123-58-148v-15" id="aZ"/><g id="w"><use transform="matrix(0.05,0,0,0.05,0,0)" xlink:href="#aX"/><use transform="matrix(0.05,0,0,0.05,5.95,0)" xlink:href="#aI"/><use transform="matrix(0.05,0,0,0.05,14.949999999999998,0)" xlink:href="#aN"/><use transform="matrix(0.05,0,0,0.05,22.9,0)" xlink:href="#aY"/><use transform="matrix(0.05,0,0,0.05,35.85,0)" xlink:href="#aZ"/></g><path d="M90-170c52 0 76 32 76 87 0 54-24 87-77 87-51 0-75-34-75-87 0-54 24-87 76-87zM89-10c39 0 46-35 46-73 0-39-7-73-46-73-39 1-44 34-44 73s6 72 44 73" id="ba"/><path d="M65-12l28 4v8H7v-8l28-4v-226l-28-4v-8h58v238" id="bb"/><g id="x"><use transform="matrix(0.05,0,0,0.05,0,0)" xlink:href="#aX"/><use transform="matrix(0.05,0,0,0.05,5.95,0)" xlink:href="#ba"/><use transform="matrix(0.05,0,0,0.05,14.949999999999998,0)" xlink:href="#bb"/><use transform="matrix(0.05,0,0,0.05,19.95,0)" xlink:href="#aM"/><use transform="matrix(0.05,0,0,0.05,28.950000000000003,0)" xlink:href="#aZ"/></g><path d="M319-222L242 5h-10l-61-162L108 5h-9L21-222l-21-4v-10h90v10l-34 4 56 166 63-163h8l61 163 54-166-37-4v-10h78v10" id="bc"/><g id="y"><use transform="matrix(0.05,0,0,0.05,0,0)" xlink:href="#aP"/><use transform="matrix(0.05,0,0,0.05,11.5,0)" xlink:href="#bc"/><use transform="matrix(0.05,0,0,0.05,28.450000000000003,0)" xlink:href="#aV"/></g><path d="M75-17c87 13 134-18 134-103 0-78-51-106-134-100v203zm171-102C246 5 139 7 10 0v-9l31-5v-208l-31-4v-10h107c82 0 129 35 129 117" id="bd"/><path d="M161-154L85 37C75 66 49 86 8 75V39c18-2 6 24 29 21 30-4 38-32 47-58L21-153c-7-3-20 0-17-12h77v8l-26 4 45 116 43-116-26-4v-8h62v8" id="be"/><g id="z"><use transform="matrix(0.05,0,0,0.05,0,0)" xlink:href="#aU"/><use transform="matrix(0.05,0,0,0.05,12,0)" xlink:href="#ba"/><use transform="matrix(0.05,0,0,0.05,21,0)" xlink:href="#aM"/><use transform="matrix(0.05,0,0,0.05,30,0)" xlink:href="#aN"/><use transform="matrix(0.05,0,0,0.05,37.95,0)" xlink:href="#bd"/><use transform="matrix(0.05,0,0,0.05,50.900000000000006,0)" xlink:href="#aN"/><use transform="matrix(0.05,0,0,0.05,58.85,0)" xlink:href="#aO"/><use transform="matrix(0.05,0,0,0.05,67.85000000000001,0)" xlink:href="#bb"/><use transform="matrix(0.05,0,0,0.05,72.85000000000001,0)" xlink:href="#ba"/><use transform="matrix(0.05,0,0,0.05,81.85000000000001,0)" xlink:href="#be"/></g><path d="M199-173c-1 36-21 56-49 65l64 94 26 5v9h-57l-66-103H75v89l35 5v9H13v-9l28-5v-208l-31-4v-10c80 4 190-20 189 63zM75-119c50 2 89-1 89-51 0-49-39-52-89-50v101" id="bf"/><g id="A"><use transform="matrix(0.05,0,0,0.05,0,0)" xlink:href="#aT"/><use transform="matrix(0.05,0,0,0.05,10.950000000000001,0)" xlink:href="#aU"/><use transform="matrix(0.05,0,0,0.05,22.950000000000003,0)" xlink:href="#bf"/></g><path d="M57-145c16-10 35-24 60-25v45c-19 1-8-30-40-17l-20 6v124l29 4v8H7v-8l21-4v-141c-8-3-24 2-21-12h48" id="bg"/><path d="M141-152c28 39 5 97-54 97-9 0-20-2-27-3L49-35c29 22 130-14 124 52-4 45-38 57-88 61C21 83-8 26 45-2 33-6 22-15 21-31l28-31c-19-9-28-26-28-51-2-51 53-65 100-52l38-20 7 8zM85 64c35 0 61-11 61-42 0-35-57-17-89-21-9 8-16 19-17 34 0 25 19 29 45 29zM52-113c1 26 7 46 35 44 28-1 34-16 35-44 0-26-6-43-34-43s-36 17-36 43" id="bh"/><g id="B"><use transform="matrix(0.05,0,0,0.05,0,0)" xlink:href="#bg"/><use transform="matrix(0.05,0,0,0.05,5.95,0)" xlink:href="#aN"/><use transform="matrix(0.05,0,0,0.05,13.9,0)" xlink:href="#bh"/><use transform="matrix(0.05,0,0,0.05,22.9,0)" xlink:href="#aL"/><use transform="matrix(0.05,0,0,0.05,27.899999999999995,0)" xlink:href="#aF"/><use transform="matrix(0.05,0,0,0.05,34.9,0)" xlink:href="#aJ"/><use transform="matrix(0.05,0,0,0.05,39.9,0)" xlink:href="#bg"/><use transform="matrix(0.05,0,0,0.05,45.85,0)" xlink:href="#be"/></g><g id="C"><use transform="matrix(0.05,0,0,0.05,0,0)" xlink:href="#aJ"/><use transform="matrix(0.05,0,0,0.05,5,0)" xlink:href="#bg"/><use transform="matrix(0.05,0,0,0.05,10.95,0)" xlink:href="#aG"/><use transform="matrix(0.05,0,0,0.05,18.9,0)" xlink:href="#aH"/><use transform="matrix(0.05,0,0,0.05,27.899999999999995,0)" xlink:href="#aL"/><use transform="matrix(0.05,0,0,0.05,32.9,0)" xlink:href="#aF"/><use transform="matrix(0.05,0,0,0.05,39.9,0)" xlink:href="#aK"/><use transform="matrix(0.05,0,0,0.05,45.85,0)" xlink:href="#aS"/><use transform="matrix(0.05,0,0,0.05,53.800000000000004,0)" xlink:href="#aL"/></g><path d="M77-14l30 5v9H13v-9l30-5v-208l-30-4v-10h94v10l-30 4v208" id="bi"/><g id="D"><use transform="matrix(0.05,0,0,0.05,0,0)" xlink:href="#bi"/><use transform="matrix(0.05,0,0,0.05,5.95,0)" xlink:href="#bd"/><use transform="matrix(0.05,0,0,0.05,18.900000000000002,0)" xlink:href="#aT"/></g><path d="M103-236c-39-15-35 32-34 71h44v15H69v136l35 6v8H15v-8l25-6v-136H11v-9l29-7c-6-59 23-100 80-84v36c-15 2-12-14-17-22" id="bj"/><g id="E"><use transform="matrix(0.05,0,0,0.05,0,0)" xlink:href="#bj"/><use transform="matrix(0.05,0,0,0.05,5.95,0)" xlink:href="#bg"/><use transform="matrix(0.05,0,0,0.05,11.9,0)" xlink:href="#ba"/><use transform="matrix(0.05,0,0,0.05,20.9,0)" xlink:href="#aI"/><use transform="matrix(0.05,0,0,0.05,29.899999999999995,0)" xlink:href="#aJ"/><use transform="matrix(0.05,0,0,0.05,34.9,0)" xlink:href="#aN"/><use transform="matrix(0.05,0,0,0.05,42.85,0)" xlink:href="#aI"/><use transform="matrix(0.05,0,0,0.05,51.85,0)" xlink:href="#aM"/></g><g id="F"><use transform="matrix(0.05,0,0,0.05,0,0)" xlink:href="#aM"/><use transform="matrix(0.05,0,0,0.05,9,0)" xlink:href="#ba"/><use transform="matrix(0.05,0,0,0.05,18,0)" xlink:href="#aY"/><use transform="matrix(0.05,0,0,0.05,30.950000000000003,0)" xlink:href="#aI"/><use transform="matrix(0.05,0,0,0.05,39.95,0)" xlink:href="#bb"/><use transform="matrix(0.05,0,0,0.05,44.95,0)" xlink:href="#ba"/><use transform="matrix(0.05,0,0,0.05,53.95,0)" xlink:href="#aG"/><use transform="matrix(0.05,0,0,0.05,61.900000000000006,0)" xlink:href="#aM"/></g><path d="M53-14c58 12 82-15 82-73 0-52-35-77-82-58v131zM89 4C64 4 42-2 24-9v-229l-24-4v-8h53l-1 94c48-33 114-4 114 69 0 57-23 91-77 91" id="bk"/><path d="M124-13C89 8 26 15 26-45v-108c-8-3-24 2-21-12h50v118c-3 37 42 32 69 25v-131l-25-4v-8h54v153c8 3 24-2 21 12h-48" id="bl"/><g id="G"><use transform="matrix(0.05,0,0,0.05,0,0)" xlink:href="#aM"/><use transform="matrix(0.05,0,0,0.05,9,0)" xlink:href="#aL"/><use transform="matrix(0.05,0,0,0.05,14,0)" xlink:href="#aF"/><use transform="matrix(0.05,0,0,0.05,21,0)" xlink:href="#aJ"/><use transform="matrix(0.05,0,0,0.05,26,0)" xlink:href="#bg"/><use transform="matrix(0.05,0,0,0.05,31.950000000000003,0)" xlink:href="#aL"/><use transform="matrix(0.05,0,0,0.05,36.95,0)" xlink:href="#bk"/><use transform="matrix(0.05,0,0,0.05,45.95,0)" xlink:href="#bl"/><use transform="matrix(0.05,0,0,0.05,54.95,0)" xlink:href="#aJ"/><use transform="matrix(0.05,0,0,0.05,59.95,0)" xlink:href="#aL"/><use transform="matrix(0.05,0,0,0.05,64.95,0)" xlink:href="#ba"/><use transform="matrix(0.05,0,0,0.05,73.95,0)" xlink:href="#aI"/></g><g id="H"><use transform="matrix(0.05,0,0,0.05,0,0)" xlink:href="#bl"/><use transform="matrix(0.05,0,0,0.05,9,0)" xlink:href="#aF"/><use transform="matrix(0.05,0,0,0.05,16,0)" xlink:href="#aN"/><use transform="matrix(0.05,0,0,0.05,23.95,0)" xlink:href="#bg"/><use transform="matrix(0.05,0,0,0.05,29.899999999999995,0)" xlink:href="#aF"/></g><g id="I"><use transform="matrix(0.05,0,0,0.05,0,0)" xlink:href="#aF"/><use transform="matrix(0.05,0,0,0.05,7,0)" xlink:href="#aG"/><use transform="matrix(0.05,0,0,0.05,14.949999999999998,0)" xlink:href="#aH"/><use transform="matrix(0.05,0,0,0.05,23.95,0)" xlink:href="#aG"/><use transform="matrix(0.05,0,0,0.05,31.899999999999995,0)" xlink:href="#aI"/><use transform="matrix(0.05,0,0,0.05,40.9,0)" xlink:href="#aJ"/><use transform="matrix(0.05,0,0,0.05,45.9,0)" xlink:href="#aK"/><use transform="matrix(0.05,0,0,0.05,51.85,0)" xlink:href="#aL"/><use transform="matrix(0.05,0,0,0.05,56.85,0)" xlink:href="#aM"/><use transform="matrix(0.05,0,0,0.05,65.85,0)" xlink:href="#aN"/><use transform="matrix(0.05,0,0,0.05,73.8,0)" xlink:href="#aK"/><use transform="matrix(0.05,0,0,0.05,79.75,0)" xlink:href="#aJ"/><use transform="matrix(0.05,0,0,0.05,84.75,0)" xlink:href="#bh"/><use transform="matrix(0.05,0,0,0.05,93.75,0)" xlink:href="#aK"/><use transform="matrix(0.05,0,0,0.05,99.7,0)" xlink:href="#bk"/><use transform="matrix(0.05,0,0,0.05,108.7,0)" xlink:href="#bb"/><use transform="matrix(0.05,0,0,0.05,113.7,0)" xlink:href="#bl"/><use transform="matrix(0.05,0,0,0.05,122.7,0)" xlink:href="#aN"/></g><g id="J"><use transform="matrix(0.05,0,0,0.05,0,0)" xlink:href="#aF"/><use transform="matrix(0.05,0,0,0.05,7,0)" xlink:href="#aG"/><use transform="matrix(0.05,0,0,0.05,14.949999999999998,0)" xlink:href="#aH"/><use transform="matrix(0.05,0,0,0.05,23.95,0)" xlink:href="#aG"/><use transform="matrix(0.05,0,0,0.05,31.899999999999995,0)" xlink:href="#aI"/><use transform="matrix(0.05,0,0,0.05,40.9,0)" xlink:href="#aJ"/><use transform="matrix(0.05,0,0,0.05,45.9,0)" xlink:href="#aK"/><use transform="matrix(0.05,0,0,0.05,51.85,0)" xlink:href="#aL"/><use transform="matrix(0.05,0,0,0.05,56.85,0)" xlink:href="#aM"/><use transform="matrix(0.05,0,0,0.05,65.85,0)" xlink:href="#aN"/><use transform="matrix(0.05,0,0,0.05,73.8,0)" xlink:href="#aK"/><use transform="matrix(0.05,0,0,0.05,79.75,0)" xlink:href="#aJ"/><use transform="matrix(0.05,0,0,0.05,84.75,0)" xlink:href="#bh"/><use transform="matrix(0.05,0,0,0.05,93.75,0)" xlink:href="#aK"/><use transform="matrix(0.05,0,0,0.05,99.7,0)" xlink:href="#bh"/><use transform="matrix(0.05,0,0,0.05,108.7,0)" xlink:href="#bg"/><use transform="matrix(0.05,0,0,0.05,114.65,0)" xlink:href="#aN"/><use transform="matrix(0.05,0,0,0.05,122.60000000000001,0)" xlink:href="#aN"/><use transform="matrix(0.05,0,0,0.05,130.55,0)" xlink:href="#aI"/></g></defs></g></svg>